<svg xmlns="http://www.w3.org/2000/svg" viewBox="0 0 79.67 32.35"><defs><style>.cls-1{fill:#fff;}.cls-2{fill:#d1d3d4;}.cls-3{fill:#231f20;}</style></defs><title>Robinair SC Black</title><g id="Layer_2" data-name="Layer 2"><g id="Layer_1-2" data-name="Layer 1"><path class="cls-1" d="M17.92,10.17a4,4,0,0,0-.65-1.42,3,3,0,0,0-.49-.46,6,6,0,0,0,.85-.49A5.59,5.59,0,0,0,20,4.64a4.8,4.8,0,0,0,.11-.57l0-.22A3.12,3.12,0,0,0,19.93,2,3.27,3.27,0,0,0,18.85.78,6.23,6.23,0,0,0,15,0H5.76L.34,16.16H6.43c.55,0,.69,0,.77-.1s.23-.38.43-1c0-.11.06-.2.08-.26l1.2-3.59.26-.78a.57.57,0,0,0,0-.14c0-.1.06-.2.07-.22l0,0a2.34,2.34,0,0,1,.88.07,1.71,1.71,0,0,1,.81.44,2.86,2.86,0,0,1,.6,1.35l0,.12a11.25,11.25,0,0,1,.25,1.41v2.72h7l-.29-2.3A22.05,22.05,0,0,0,17.92,10.17ZM13.14,4.42a2.53,2.53,0,0,1-.76,1.88,2.09,2.09,0,0,1-.66.41l-.35.12-.21,0h-.79l1.05-3.17h.17a2.53,2.53,0,0,1,1.13.12A.73.73,0,0,1,13.14,4.42Z"/><rect class="cls-1" x="38.98" y="3.44" width="3.9" height="11.33"/><path class="cls-1" d="M37.11,8.58c.08-.06.15-.14.24-.22a2.72,2.72,0,0,0,.69-2A3.23,3.23,0,0,0,37,4a4.56,4.56,0,0,0-3.07-.61H29.43V8.29C29.06,5.3,26.81,3,24.09,3c-3,0-5.39,2.78-5.39,6.19s2.42,6.19,5.39,6.19c2.72,0,5-2.32,5.34-5.31v4.72h5.43a5,5,0,0,0,2.49-.48c1.31-.76,1.69-2.88,1.14-4.2A3.48,3.48,0,0,0,37.11,8.58ZM23,9.19c0-1.13.54-2,1-2s1,.84,1,2-.54,2-1,2S23,10.31,23,9.19ZM34.3,7.55c-.15.16-.24.23-.4.23h-.51V6.06h0a1.83,1.83,0,0,1,.69.07.79.79,0,0,1,.4.58A1,1,0,0,1,34.3,7.55Zm-.91,2.79h.07a2.52,2.52,0,0,1,1,.09.82.82,0,0,1,.42.56,1.17,1.17,0,0,1-.15.95.54.54,0,0,1-.42.26h-.9Z"/><path class="cls-1" d="M65.12,13.76l-.9-2.55L62.81,7.32,61.46,3.57l-.05-.13H57.68l0,.16a5.69,5.69,0,0,1-.29.85L54,13.69V3.44H50.2V8.31l-2.7-3.73-.14-.21c-.44-.69-.59-.86-.75-.89a8.19,8.19,0,0,0-.87,0H43.32V14.77h3.81l0-4.68,3.05,4.13.06.1a1,1,0,0,0,.38.4,1.07,1.07,0,0,0,.41.06h6.8l0-.15c.06-.23.16-.56.24-.87l.22-.77h2.4c.13.51.49,1.78.73,1.78H69V3.44h-3.9ZM60,10.16h-.92l.46-1.73Z"/><path class="cls-1" d="M79.16,13.32c-.22-.63-.47-1.28-.82-2.13a6.19,6.19,0,0,0-.84-1.56,3.42,3.42,0,0,0-.37-.41A1.81,1.81,0,0,0,77.37,9l0-.05a3.14,3.14,0,0,0,.73-2.28,3.51,3.51,0,0,0-1-2.43,4.57,4.57,0,0,0-3.34-.79H69.45V14.77h3.9V10.55a1.19,1.19,0,0,1,.62.16A2.28,2.28,0,0,1,74.82,12l.1.23a13.47,13.47,0,0,1,.56,1.56.84.84,0,0,1,0,.14c.12.47.21.71.35.81a.75.75,0,0,0,.43.08h3.37ZM74.09,8a.44.44,0,0,1-.33.2h-.41V6.12a1.21,1.21,0,0,1,.54.08.83.83,0,0,1,.4.59A1.56,1.56,0,0,1,74.09,8Z"/><polygon class="cls-2" points="3.44 21.49 0 32.35 4.76 32.35 8.2 21.49 3.44 21.49"/><polygon class="cls-1" points="30.18 21.49 8.2 21.49 4.76 32.35 26.74 32.35 75.95 32.35 79.39 21.49 30.18 21.49"/><path class="cls-3" d="M11,28H9.9L9.66,29H8.8L10,24.68h.85L12.07,29h-.86Zm-.89-.65h.72L10.44,26h0Z"/><path class="cls-3" d="M14.1,28.49a1,1,0,0,1-.32.38.71.71,0,0,1-.43.14.8.8,0,0,1-.68-.35,1.84,1.84,0,0,1-.24-1.06V25.78h.82v1.83a1.36,1.36,0,0,0,.09.59.26.26,0,0,0,.26.16.62.62,0,0,0,.25-.05.58.58,0,0,0,.19-.16V25.78h.83V29h-.68Z"/><path class="cls-3" d="M16.49,25v.79h.43v.58h-.43V28a.55.55,0,0,0,.06.29.19.19,0,0,0,.16.08h.1l.09,0,.06.61a.9.9,0,0,1-.22.06l-.24,0a.76.76,0,0,1-.62-.25,1.17,1.17,0,0,1-.22-.78V26.36h-.38v-.58h.38V25Z"/><path class="cls-3" d="M18.31,26.16a1,1,0,0,1,.3-.33.77.77,0,0,1,.39-.11.79.79,0,0,1,.67.33,1.77,1.77,0,0,1,.25,1V29h-.83V27.07a1.21,1.21,0,0,0-.09-.55.27.27,0,0,0-.26-.15.62.62,0,0,0-.25.05.42.42,0,0,0-.18.17V29h-.83V24.38h.83Z"/><path class="cls-3" d="M20.47,27.33a1.9,1.9,0,0,1,.34-1.16,1.14,1.14,0,0,1,1-.45,1.17,1.17,0,0,1,1,.45,1.84,1.84,0,0,1,.34,1.16v.07a1.84,1.84,0,0,1-.34,1.16,1.14,1.14,0,0,1-1,.45,1.13,1.13,0,0,1-1-.45,1.84,1.84,0,0,1-.35-1.16Zm.83.07a1.71,1.71,0,0,0,.11.7.36.36,0,0,0,.37.26.36.36,0,0,0,.36-.26,1.71,1.71,0,0,0,.11-.7v-.07a1.74,1.74,0,0,0-.11-.7.38.38,0,0,0-.73,0,1.74,1.74,0,0,0-.11.7Z"/><path class="cls-3" d="M25.13,26.49h-.29a.45.45,0,0,0-.23.07.46.46,0,0,0-.14.21V29h-.82V25.78h.77l0,.44a1,1,0,0,1,.23-.37.48.48,0,0,1,.33-.13h.1l.1,0Z"/><path class="cls-3" d="M26.5,25h-.83v-.63h.83Zm0,3.94h-.83V25.78h.83Z"/><path class="cls-3" d="M28.1,28.3h1.33V29h-2.3v-.49l1.3-2H27.17v-.64H29.4v.47Z"/><path class="cls-3" d="M31.19,29a1.17,1.17,0,0,1-1-.44,1.73,1.73,0,0,1-.35-1.11v-.12a1.87,1.87,0,0,1,.34-1.17,1.09,1.09,0,0,1,.93-.45,1,1,0,0,1,.86.38,1.65,1.65,0,0,1,.3,1v.45H30.7a1.06,1.06,0,0,0,.16.56.48.48,0,0,0,.43.21,1.58,1.58,0,0,0,.41-.05,2,2,0,0,0,.36-.18l.21.51a1.43,1.43,0,0,1-.46.26A1.8,1.8,0,0,1,31.19,29Zm-.05-2.65a.34.34,0,0,0-.31.19,1.26,1.26,0,0,0-.12.5h.78V27a1,1,0,0,0-.08-.45A.28.28,0,0,0,31.14,26.36Z"/><path class="cls-3" d="M32.73,27.38A2.38,2.38,0,0,1,33,26.17a.89.89,0,0,1,.79-.45.64.64,0,0,1,.34.09.77.77,0,0,1,.28.26V24.38h.82V29h-.7l-.06-.36a1.11,1.11,0,0,1-.3.31.71.71,0,0,1-.39.11.9.9,0,0,1-.78-.43,2.14,2.14,0,0,1-.28-1.14Zm.82.06a1.69,1.69,0,0,0,.11.67.36.36,0,0,0,.35.25.48.48,0,0,0,.24-.06.63.63,0,0,0,.17-.19V26.65a.6.6,0,0,0-.17-.21.42.42,0,0,0-.24-.07.36.36,0,0,0-.35.28,2.08,2.08,0,0,0-.11.73Z"/><path class="cls-3" d="M39.3,27.84a.6.6,0,0,0-.13-.4,1.23,1.23,0,0,0-.47-.29,3,3,0,0,1-1-.53,1,1,0,0,1-.33-.82,1.08,1.08,0,0,1,.38-.85,1.4,1.4,0,0,1,1-.33,1.42,1.42,0,0,1,1,.35,1.15,1.15,0,0,1,.37.94v0h-.8a.73.73,0,0,0-.15-.5.51.51,0,0,0-.42-.17.47.47,0,0,0-.37.15.59.59,0,0,0-.13.39.46.46,0,0,0,.15.36,1.82,1.82,0,0,0,.51.31,2.52,2.52,0,0,1,.94.52,1.14,1.14,0,0,1,.32.84,1.06,1.06,0,0,1-.38.86,1.46,1.46,0,0,1-1,.32,1.66,1.66,0,0,1-1-.34,1.19,1.19,0,0,1-.42-1v0h.8a.84.84,0,0,0,.17.58.59.59,0,0,0,.48.17.52.52,0,0,0,.4-.14A.61.61,0,0,0,39.3,27.84Z"/><path class="cls-3" d="M41.94,29a1.17,1.17,0,0,1-1-.44,1.73,1.73,0,0,1-.35-1.11v-.12A1.87,1.87,0,0,1,41,26.17a1.09,1.09,0,0,1,.93-.45,1,1,0,0,1,.86.38,1.65,1.65,0,0,1,.3,1v.45h-1.6a1.06,1.06,0,0,0,.16.56.47.47,0,0,0,.43.21,1.58,1.58,0,0,0,.41-.05,2,2,0,0,0,.36-.18l.21.51a1.43,1.43,0,0,1-.46.26A1.8,1.8,0,0,1,41.94,29Zm0-2.65a.34.34,0,0,0-.31.19,1.26,1.26,0,0,0-.12.5h.78V27a1,1,0,0,0-.08-.45A.28.28,0,0,0,41.89,26.36Z"/><path class="cls-3" d="M45.07,26.49h-.28a.42.42,0,0,0-.23.07.46.46,0,0,0-.14.21V29h-.83V25.78h.77l0,.44a.9.9,0,0,1,.23-.37.44.44,0,0,1,.33-.13h.1l.09,0Z"/><path class="cls-3" d="M46.66,27.77l0,.24h0l0-.24.38-2H48L47.11,29H46.3l-.91-3.17h.87Z"/><path class="cls-3" d="M49.31,25h-.82v-.63h.82Zm0,3.94h-.82V25.78h.82Z"/><path class="cls-3" d="M51.19,28.36a.3.3,0,0,0,.27-.13.63.63,0,0,0,.09-.37h.74v0a1,1,0,0,1-.31.81,1.09,1.09,0,0,1-.8.32,1.11,1.11,0,0,1-.95-.45,1.84,1.84,0,0,1-.34-1.16v-.08a1.83,1.83,0,0,1,.34-1.15,1.1,1.1,0,0,1,.95-.45,1.08,1.08,0,0,1,.82.33,1.21,1.21,0,0,1,.29.89h-.75a.82.82,0,0,0-.09-.42.29.29,0,0,0-.27-.17.36.36,0,0,0-.36.27,1.86,1.86,0,0,0-.1.69v.08a1.89,1.89,0,0,0,.1.7A.36.36,0,0,0,51.19,28.36Z"/><path class="cls-3" d="M54.05,29a1.18,1.18,0,0,1-1-.44,1.73,1.73,0,0,1-.34-1.11v-.12a1.93,1.93,0,0,1,.33-1.17,1.09,1.09,0,0,1,.93-.45,1,1,0,0,1,.86.38,1.65,1.65,0,0,1,.3,1v.45h-1.6a1.16,1.16,0,0,0,.16.56.48.48,0,0,0,.43.21,1.53,1.53,0,0,0,.41-.05,2,2,0,0,0,.36-.18l.21.51a1.32,1.32,0,0,1-.46.26A1.75,1.75,0,0,1,54.05,29Zm0-2.65a.33.33,0,0,0-.3.19,1.25,1.25,0,0,0-.13.5h.78V27a.91.91,0,0,0-.08-.45A.28.28,0,0,0,54,26.36Z"/><path class="cls-3" d="M60,27.62v0a1.32,1.32,0,0,1-.35,1,1.7,1.7,0,0,1-2.13-.07,1.55,1.55,0,0,1-.4-1.15V26.18A1.6,1.6,0,0,1,57.52,25a1.4,1.4,0,0,1,1.06-.41,1.53,1.53,0,0,1,1.07.34A1.27,1.27,0,0,1,60,26h-.8a.85.85,0,0,0-.15-.57.62.62,0,0,0-.48-.16.52.52,0,0,0-.47.22,1.25,1.25,0,0,0-.16.69v1.27a1.17,1.17,0,0,0,.17.69.59.59,0,0,0,.51.22.54.54,0,0,0,.44-.16.94.94,0,0,0,.13-.58Z"/><path class="cls-3" d="M61.81,29a1.19,1.19,0,0,1-1-.44,1.73,1.73,0,0,1-.34-1.11v-.12a1.93,1.93,0,0,1,.33-1.17,1.09,1.09,0,0,1,.94-.45,1,1,0,0,1,.86.38,1.71,1.71,0,0,1,.29,1v.45h-1.6a1.16,1.16,0,0,0,.16.56.49.49,0,0,0,.43.21,1.53,1.53,0,0,0,.41-.05,2,2,0,0,0,.36-.18l.21.51a1.37,1.37,0,0,1-.45.26A1.84,1.84,0,0,1,61.81,29Zm-.05-2.65a.34.34,0,0,0-.31.19,1.25,1.25,0,0,0-.13.5h.79V27a1,1,0,0,0-.08-.45A.29.29,0,0,0,61.76,26.36Z"/><path class="cls-3" d="M64.21,25.78l0,.44a1.08,1.08,0,0,1,.33-.37.73.73,0,0,1,.43-.13.76.76,0,0,1,.64.31,1.72,1.72,0,0,1,.23,1V29h-.83V27a1.13,1.13,0,0,0-.08-.5.29.29,0,0,0-.27-.15.48.48,0,0,0-.24.06.55.55,0,0,0-.19.18V29h-.83V25.78Z"/><path class="cls-3" d="M67.5,25v.79h.43v.58H67.5V28a.55.55,0,0,0,.06.29.19.19,0,0,0,.16.08h.09l.1,0,.06.61-.22.06-.24,0a.76.76,0,0,1-.62-.25,1.12,1.12,0,0,1-.22-.78V26.36h-.38v-.58h.38V25Z"/><path class="cls-3" d="M69.72,29a1.18,1.18,0,0,1-1-.44,1.73,1.73,0,0,1-.34-1.11v-.12a1.93,1.93,0,0,1,.33-1.17,1.09,1.09,0,0,1,.93-.45,1,1,0,0,1,.86.38,1.65,1.65,0,0,1,.3,1v.45h-1.6a1.16,1.16,0,0,0,.16.56.48.48,0,0,0,.43.21,1.53,1.53,0,0,0,.41-.05,2,2,0,0,0,.36-.18l.21.51a1.32,1.32,0,0,1-.46.26A1.75,1.75,0,0,1,69.72,29Zm0-2.65a.33.33,0,0,0-.3.19,1.25,1.25,0,0,0-.13.5H70V27a.91.91,0,0,0-.08-.45A.28.28,0,0,0,69.67,26.36Z"/><path class="cls-3" d="M72.85,26.49h-.28a.42.42,0,0,0-.23.07.46.46,0,0,0-.14.21V29h-.82V25.78h.77l0,.44a1,1,0,0,1,.23-.37.48.48,0,0,1,.33-.13h.1l.1,0Z"/></g></g></svg>